<?xml version="1.0" encoding="utf-8"?>
<!-- Generator: Adobe Illustrator 19.2.0, SVG Export Plug-In . SVG Version: 6.00 Build 0)  -->
<svg version="1.1" id="Layer_1" xmlns="http://www.w3.org/2000/svg" xmlns:xlink="http://www.w3.org/1999/xlink" x="0px" y="0px"
	 viewBox="0 0 251.069 52.772" style="enable-background:new 0 0 251.069 52.772;" xml:space="preserve">
<style type="text/css">
	.st0{fill:#0071BC;}
	.st1{fill:#4F4F4F;}
</style>
<g id="XMLID_1_">
	<path id="XMLID_3_" class="st0" d="M63.461,16.478L33.915,0.361c-0.88-0.482-1.95-0.482-2.83,0L1.539,16.478
		C0.591,16.995,0,17.988,0,19.072v4.154c0,1.634,1.324,2.955,2.954,2.955h2.955v23.636c0,1.634,1.324,2.954,2.954,2.954h5.909
		V29.136h35.455v23.636h5.909c1.631,0,2.954-1.321,2.954-2.954V26.181h2.955c1.631,0,2.955-1.321,2.955-2.955v-4.154
		C65,17.988,64.409,16.995,63.461,16.478z"/>
	<rect id="XMLID_4_" x="20.682" y="35.045" class="st0" width="23.636" height="5.909"/>
	<rect id="XMLID_5_" x="20.682" y="46.863" class="st0" width="23.636" height="5.909"/>
</g>
<g>
	<path class="st1" d="M107.291,16.543l-5.343,35.882H97.11L93.18,29.142h-0.101l-3.881,23.283H84.36l-5.342-35.882h5.442
		l2.57,22.779h0.101l4.032-22.779h3.931l4.183,23.333h0.101l2.47-23.333H107.291z"/>
	<path class="st1" d="M119.032,52.425v-2.621h-0.101c-0.672,0.941-1.353,1.663-2.041,2.168c-0.688,0.504-1.655,0.756-2.897,0.756
		c-0.604,0-1.219-0.094-1.84-0.277c-0.622-0.185-1.218-0.529-1.789-1.033c-0.571-0.471-1.033-1.15-1.386-2.041
		c-0.353-0.89-0.529-2.041-0.529-3.452c0-1.444,0.117-2.713,0.353-3.805s0.672-2.008,1.311-2.747
		c0.604-0.705,1.428-1.234,2.47-1.588c1.041-0.353,2.368-0.528,3.981-0.528c0.167,0,0.353,0,0.554,0c0.202,0,0.386,0.017,0.555,0.05
		c0.168,0.034,0.369,0.051,0.604,0.051s0.487,0.018,0.756,0.05v-2.671c0-0.873-0.185-1.595-0.554-2.167
		c-0.37-0.57-1.042-0.856-2.017-0.856c-0.672,0-1.284,0.219-1.839,0.655s-0.916,1.075-1.084,1.915h-4.989
		c0.134-2.284,0.907-4.133,2.318-5.544c0.672-0.672,1.479-1.2,2.419-1.587c0.94-0.386,1.999-0.58,3.175-0.58
		c1.075,0,2.083,0.168,3.024,0.504c0.94,0.336,1.764,0.841,2.47,1.512c0.671,0.673,1.209,1.513,1.612,2.521s0.604,2.184,0.604,3.527
		v17.79H119.032z M119.032,41.439c-0.571-0.101-1.041-0.151-1.411-0.151c-1.108,0-2.058,0.261-2.847,0.781
		c-0.79,0.521-1.185,1.47-1.185,2.848c0,0.975,0.234,1.764,0.705,2.368s1.126,0.907,1.966,0.907c0.873,0,1.554-0.285,2.041-0.856
		c0.486-0.571,0.73-1.377,0.73-2.419V41.439z"/>
	<path class="st1" d="M127.952,52.425V26.874h5.141v2.722c1.041-0.94,2.066-1.68,3.074-2.218c1.008-0.537,2.251-0.807,3.729-0.807
		v5.443c-0.504-0.202-1.025-0.303-1.562-0.303s-1.117,0.093-1.738,0.277c-0.622,0.185-1.185,0.496-1.688,0.933
		c-0.538,0.437-0.975,1.008-1.311,1.713c-0.336,0.706-0.504,1.58-0.504,2.621v15.169H127.952z"/>
	<path class="st1" d="M156.83,41.59h-10.18v3.478c0,0.806,0.227,1.428,0.68,1.864c0.454,0.437,1.066,0.655,1.84,0.655
		c0.975,0,1.621-0.285,1.94-0.856c0.318-0.571,0.512-1.143,0.579-1.714h5.141c0,2.251-0.688,4.065-2.066,5.442
		c-0.672,0.706-1.479,1.261-2.419,1.663c-0.94,0.403-1.999,0.605-3.175,0.605c-1.612,0-2.982-0.336-4.107-1.008
		c-1.126-0.672-1.99-1.562-2.595-2.672c-0.37-0.671-0.623-1.443-0.757-2.317s-0.201-1.831-0.201-2.873v-8.416
		c0-1.041,0.067-1.999,0.201-2.873c0.134-0.873,0.387-1.646,0.757-2.318c0.604-1.108,1.469-1.998,2.595-2.671
		c1.125-0.671,2.495-1.008,4.107-1.008c1.176,0,2.243,0.202,3.2,0.605c0.958,0.403,1.771,0.958,2.444,1.663
		c1.344,1.513,2.016,3.411,2.016,5.695V41.59z M146.65,37.558h5.039v-2.923c0-0.974-0.227-1.705-0.68-2.192
		c-0.454-0.486-1.067-0.73-1.84-0.73c-0.773,0-1.386,0.244-1.84,0.73c-0.453,0.487-0.68,1.219-0.68,2.192V37.558z"/>
	<path class="st1" d="M160.609,52.425V16.543h5.141v12.8h0.101c0.537-0.806,1.185-1.469,1.94-1.99
		c0.756-0.521,1.722-0.781,2.898-0.781c0.638,0,1.276,0.109,1.915,0.328c0.638,0.219,1.209,0.58,1.713,1.083s0.907,1.151,1.21,1.94
		c0.302,0.79,0.453,1.756,0.453,2.897v19.604h-5.141V34.736c0-0.939-0.219-1.68-0.654-2.217c-0.438-0.537-1.059-0.807-1.865-0.807
		c-0.975,0-1.646,0.303-2.016,0.907c-0.37,0.604-0.555,1.479-0.555,2.62v17.186H160.609z"/>
	<path class="st1" d="M179.76,35.442c0-1.041,0.067-1.999,0.201-2.873c0.134-0.873,0.387-1.646,0.757-2.318
		c0.604-1.108,1.469-1.998,2.595-2.671c1.125-0.671,2.495-1.008,4.107-1.008s2.981,0.336,4.107,1.008
		c1.125,0.673,1.99,1.562,2.596,2.671c0.369,0.673,0.621,1.445,0.756,2.318c0.134,0.874,0.201,1.832,0.201,2.873v8.416
		c0,1.042-0.067,1.999-0.201,2.873c-0.135,0.874-0.387,1.646-0.756,2.317c-0.605,1.109-1.471,2-2.596,2.672
		c-1.126,0.672-2.495,1.008-4.107,1.008s-2.982-0.336-4.107-1.008c-1.126-0.672-1.99-1.562-2.595-2.672
		c-0.37-0.671-0.623-1.443-0.757-2.317s-0.201-1.831-0.201-2.873V35.442z M184.9,44.664c0,0.975,0.227,1.705,0.68,2.192
		c0.454,0.487,1.066,0.73,1.84,0.73c0.772,0,1.386-0.243,1.84-0.73c0.453-0.487,0.68-1.218,0.68-2.192V34.635
		c0-0.974-0.227-1.705-0.68-2.192c-0.454-0.486-1.067-0.73-1.84-0.73c-0.773,0-1.386,0.244-1.84,0.73
		c-0.453,0.487-0.68,1.219-0.68,2.192V44.664z"/>
	<path class="st1" d="M214.23,26.874v25.551h-5.141v-2.47h-0.101c-0.537,0.807-1.185,1.471-1.94,1.991s-1.722,0.781-2.897,0.781
		c-0.639,0-1.277-0.109-1.915-0.328c-0.639-0.218-1.209-0.579-1.714-1.083c-0.504-0.504-0.906-1.15-1.209-1.94
		c-0.303-0.789-0.454-1.755-0.454-2.897V26.874H204v17.688c0,0.941,0.219,1.681,0.655,2.218c0.437,0.538,1.059,0.807,1.865,0.807
		c0.974,0,1.646-0.303,2.016-0.907c0.369-0.604,0.554-1.479,0.554-2.621V26.874H214.23z"/>
	<path class="st1" d="M227.787,34.031c-0.034-0.873-0.312-1.528-0.832-1.966c-0.521-0.437-1.117-0.655-1.789-0.655
		c-0.807,0-1.429,0.261-1.864,0.781c-0.438,0.521-0.655,1.117-0.655,1.789c0,0.471,0.117,0.933,0.353,1.386
		c0.234,0.454,0.84,0.866,1.814,1.235l3.023,1.209c1.915,0.739,3.233,1.748,3.956,3.024c0.723,1.277,1.084,2.671,1.084,4.183
		c0,1.075-0.194,2.075-0.58,2.998c-0.387,0.925-0.916,1.739-1.587,2.444c-0.673,0.706-1.479,1.261-2.419,1.663
		c-0.941,0.403-1.966,0.605-3.074,0.605c-2.084,0-3.83-0.655-5.241-1.966c-0.706-0.638-1.277-1.437-1.714-2.394
		c-0.437-0.958-0.673-2.074-0.705-3.352h4.838c0.101,0.705,0.344,1.36,0.73,1.966c0.386,0.604,1.066,0.906,2.041,0.906
		c0.738,0,1.402-0.243,1.99-0.73c0.588-0.486,0.883-1.167,0.883-2.041c0-0.705-0.186-1.311-0.555-1.814
		c-0.37-0.504-1.042-0.939-2.016-1.31l-2.47-0.907c-1.612-0.605-2.881-1.504-3.805-2.696c-0.925-1.192-1.386-2.646-1.386-4.359
		c0-1.075,0.201-2.074,0.604-2.999c0.403-0.924,0.957-1.721,1.663-2.394c0.672-0.672,1.461-1.185,2.368-1.537
		s1.882-0.529,2.923-0.529s2.008,0.185,2.898,0.555c0.89,0.37,1.654,0.891,2.293,1.562c0.638,0.672,1.142,1.47,1.512,2.394
		c0.369,0.925,0.555,1.907,0.555,2.948H227.787z"/>
	<path class="st1" d="M251.069,41.59h-10.18v3.478c0,0.806,0.227,1.428,0.68,1.864c0.454,0.437,1.066,0.655,1.84,0.655
		c0.975,0,1.621-0.285,1.94-0.856c0.318-0.571,0.512-1.143,0.579-1.714h5.141c0,2.251-0.688,4.065-2.066,5.442
		c-0.672,0.706-1.479,1.261-2.419,1.663c-0.94,0.403-1.999,0.605-3.175,0.605c-1.612,0-2.982-0.336-4.107-1.008
		c-1.126-0.672-1.99-1.562-2.595-2.672c-0.37-0.671-0.623-1.443-0.757-2.317s-0.201-1.831-0.201-2.873v-8.416
		c0-1.041,0.067-1.999,0.201-2.873c0.134-0.873,0.387-1.646,0.757-2.318c0.604-1.108,1.469-1.998,2.595-2.671
		c1.125-0.671,2.495-1.008,4.107-1.008c1.176,0,2.243,0.202,3.2,0.605c0.958,0.403,1.771,0.958,2.444,1.663
		c1.344,1.513,2.016,3.411,2.016,5.695V41.59z M240.89,37.558h5.039v-2.923c0-0.974-0.227-1.705-0.68-2.192
		c-0.454-0.486-1.067-0.73-1.84-0.73c-0.773,0-1.386,0.244-1.84,0.73c-0.453,0.487-0.68,1.219-0.68,2.192V37.558z"/>
</g>
</svg>
